<?xml version="1.0" standalone="no"?>
<!DOCTYPE svg PUBLIC "-//W3C//DTD SVG 20010904//EN"
 "http://www.w3.org/TR/2001/REC-SVG-20010904/DTD/svg10.dtd">
<svg version="1.0" xmlns="http://www.w3.org/2000/svg"
 width="459.000000pt" height="320.000000pt" viewBox="0 0 459.000000 320.000000"
 preserveAspectRatio="xMidYMid meet">

<g transform="translate(0.000000,320.000000) scale(0.100000,-0.100000)"
fill="#ffffff" stroke="none">
<path d="M3095 3131 c-68 -32 -142 -105 -201 -197 -89 -139 -181 -381 -225
-592 -21 -97 -27 -112 -70 -167 -62 -78 -119 -133 -144 -137 -17 -3 -20 3 -23
40 -5 63 23 144 86 257 45 81 56 109 56 147 1 42 -3 52 -29 73 -29 23 -60 37
-116 49 -24 5 -25 8 -21 66 8 108 -33 173 -122 194 -94 22 -193 -81 -166 -174
13 -45 13 -53 -1 -44 -18 11 6 -28 33 -52 29 -27 74 -50 115 -59 18 -3 35 -10
38 -15 10 -16 -61 -95 -115 -127 -30 -18 -57 -33 -61 -33 -3 0 -9 18 -13 41
-14 85 -53 128 -123 134 -52 4 -96 -19 -121 -64 -27 -48 -28 -80 -2 -125 24
-39 80 -66 140 -66 21 0 41 -4 44 -9 9 -14 -23 -121 -52 -175 -30 -56 -50 -66
-77 -39 -16 15 -17 30 -12 123 4 81 3 99 -5 80 -6 -14 -12 -66 -12 -117 -1
-61 -4 -89 -11 -82 -12 12 -13 136 -3 195 7 36 5 42 -11 47 -13 3 -30 -7 -54
-32 -63 -67 -59 -186 8 -259 31 -34 38 -37 89 -37 47 0 59 4 86 30 43 40 87
131 107 216 15 68 17 71 62 94 25 13 60 37 77 52 37 33 98 111 107 136 5 13
17 17 49 17 69 0 75 -9 43 -69 -35 -64 -67 -94 -36 -33 12 23 19 42 16 42 -12
0 -75 -146 -91 -209 -10 -41 -15 -90 -12 -134 4 -65 6 -71 41 -103 30 -28 45
-34 79 -34 41 0 47 4 126 86 67 70 83 82 88 67 26 -80 60 -118 118 -128 49
-10 88 15 143 90 27 35 51 64 55 65 4 0 12 -17 18 -37 7 -24 24 -48 47 -65 83
-63 116 -33 243 226 54 110 101 211 105 224 13 45 22 21 9 -27 -7 -27 -18 -84
-24 -128 -7 -43 -14 -89 -17 -103 -5 -24 -6 -24 -14 -5 -6 13 -8 -20 -5 -90 7
-165 51 -283 130 -353 64 -56 162 -66 205 -23 22 22 47 29 35 9 -5 -7 -3 -8 5
-4 7 5 10 10 7 13 -3 3 21 35 54 70 33 35 78 97 101 138 44 81 58 97 34 38 -8
-20 -13 -38 -11 -40 2 -3 14 22 27 54 19 47 23 78 23 163 1 58 -3 116 -8 129
-6 18 -5 22 5 16 8 -5 3 4 -11 20 -29 32 -94 64 -130 65 -50 0 -103 -22 -145
-61 -40 -37 -85 -112 -85 -141 0 -7 13 15 29 48 16 34 35 65 41 69 7 4 11 4 8
-1 -70 -147 -84 -241 -49 -329 7 -16 12 -32 11 -35 -1 -2 9 -8 21 -12 35 -13
44 5 25 52 -17 43 -23 105 -6 65 6 -14 9 -1 9 45 2 112 34 185 100 224 l34 20
28 -32 c26 -28 29 -40 29 -96 0 -118 -65 -280 -148 -368 -101 -108 -173 -103
-216 15 -16 41 -16 41 -10 7 3 -26 2 -31 -5 -19 -6 9 -13 36 -15 60 -5 35 -4
39 4 19 7 -19 8 -15 4 20 -4 25 -10 50 -14 55 -29 38 53 436 140 675 23 63 54
151 71 195 31 85 38 175 17 192 -35 27 -47 22 -80 -30 -18 -29 -38 -56 -44
-62 -11 -9 -190 -396 -231 -498 -12 -29 -19 -36 -32 -31 -31 14 -90 16 -125 4
-45 -15 -112 -63 -127 -92 -7 -14 0 -10 19 12 37 42 42 32 7 -14 -14 -18 -30
-47 -36 -65 -7 -21 -14 -29 -19 -21 -4 7 -10 -1 -14 -22 -7 -35 -147 -225
-174 -235 -66 -26 -46 182 36 382 26 63 33 72 78 94 27 14 87 63 134 110 68
68 96 105 133 177 82 159 96 270 40 314 -35 28 -77 25 -148 -9z m103 -57 c15
-4 22 -14 22 -29 0 -48 -49 -163 -102 -240 -55 -79 -157 -185 -177 -185 -22 0
166 349 225 419 30 36 18 43 -14 8 -35 -37 -120 -183 -188 -324 -39 -82 -70
-133 -79 -133 -15 0 -15 2 64 172 50 108 130 237 173 279 44 42 42 42 76 33z
m477 -51 c-3 -21 -27 -89 -52 -151 -58 -146 -94 -259 -128 -399 -15 -62 -31
-113 -35 -113 -4 0 -4 15 0 33 66 276 96 373 201 645 13 35 22 26 14 -15z
m-701 -28 c-4 -8 -11 -15 -16 -15 -6 0 -5 6 2 15 7 8 14 15 16 15 2 0 1 -7 -2
-15z m-45 -71 c-54 -95 -165 -328 -174 -367 -4 -15 -12 -30 -17 -33 -33 -21
99 283 176 404 33 53 46 50 15 -4z m-609 -137 c30 -23 50 -62 50 -94 0 -18 -4
-33 -10 -33 -5 0 -10 -9 -10 -20 0 -26 -25 -26 -70 1 -46 28 -60 47 -60 84 0
57 60 94 100 62z m-69 -148 c13 -10 19 -19 13 -19 -14 0 -74 59 -74 74 0 6 9
0 19 -13 10 -13 29 -32 42 -42z m1173 -11 c-22 -63 -85 -187 -79 -157 5 29 81
199 89 199 3 0 -2 -19 -10 -42z m-576 -171 c-39 -96 -69 -211 -75 -287 -6 -73
-21 -76 -22 -4 -1 42 65 301 84 331 27 41 36 15 13 -40z m-829 12 c26 -24 41
-59 41 -95 0 -19 -5 -24 -25 -24 -33 0 -81 25 -89 45 -10 27 -7 70 6 83 18 18
41 15 67 -9z m511 -77 c-77 -142 -102 -202 -107 -262 -6 -63 -23 -84 -23 -27
1 77 42 180 136 344 33 58 28 6 -6 -55z m-451 20 c7 -22 7 -41 1 -51 -7 -13
-9 -10 -10 12 0 15 -7 44 -15 64 -13 31 -13 34 0 23 8 -7 19 -28 24 -48z
m-108 -58 c13 -7 36 -13 52 -14 15 0 27 -4 27 -10 0 -13 -31 -13 -67 1 -42 16
-73 49 -73 78 1 25 1 25 19 -8 10 -18 29 -40 42 -47z m730 49 c-12 -20 -14
-14 -5 12 4 9 9 14 11 11 3 -2 0 -13 -6 -23z m489 -10 c-44 -50 -89 -149 -97
-212 -3 -28 -10 -51 -14 -51 -14 0 -10 38 12 114 24 82 51 132 88 163 40 35
47 27 11 -14z m84 29 c7 -12 -152 -332 -165 -332 -25 0 -2 130 36 207 43 86
111 153 129 125z m34 -57 c-6 -14 -13 -23 -15 -21 -5 5 15 46 22 46 3 0 -1
-11 -7 -25z m-927 -18 c-10 -9 -11 -8 -5 6 3 10 9 15 12 12 3 -3 0 -11 -7 -18z
m1493 -21 c37 -79 8 -215 -75 -341 -58 -89 -77 -96 -24 -9 69 114 108 302 76
362 -13 25 -14 35 -2 28 5 -3 16 -21 25 -40z m-417 2 c-3 -8 -6 -5 -6 6 -1 11
2 17 5 13 3 -3 4 -12 1 -19z m-768 -5 c0 -5 -4 -17 -9 -28 -8 -18 -9 -17 -9 8
-1 15 4 27 9 27 6 0 10 -3 9 -7z m587 -21 c-18 -16 -18 -16 -6 6 6 13 14 21
18 18 3 -4 -2 -14 -12 -24z m-599 -159 c-3 -10 -5 -4 -5 12 0 17 2 24 5 18 2
-7 2 -21 0 -30z m31 -89 c-4 -3 -12 5 -18 18 -12 22 -12 22 6 6 10 -10 15 -20
12 -24z"/>
<path d="M2274 3086 c-97 -22 -295 -91 -370 -129 -38 -19 -93 -42 -121 -50
l-53 -16 -30 64 c-36 76 -78 107 -154 112 -67 5 -110 -20 -127 -76 -10 -35 -9
-45 11 -85 28 -59 87 -95 180 -109 84 -14 83 -12 70 -166 -21 -239 -88 -459
-185 -609 -58 -90 -120 -116 -145 -61 -4 8 -15 31 -25 51 -16 33 -16 47 -6
150 7 62 23 169 38 238 14 69 26 156 27 193 1 61 -2 71 -23 88 -13 10 -28 19
-33 19 -6 0 1 -9 16 -21 14 -11 26 -25 26 -32 0 -6 -9 -1 -20 11 -26 28 -35
28 -65 -2 -13 -13 -25 -20 -27 -14 -2 5 -16 -35 -32 -89 -51 -178 -67 -224
-117 -355 -53 -136 -102 -213 -134 -213 -56 0 -56 182 0 480 19 99 37 209 40
245 8 78 -9 136 -45 158 l-25 16 23 -25 c38 -43 38 -101 -3 -349 -21 -129 -39
-280 -43 -355 -5 -108 -7 -123 -15 -90 -4 22 -6 85 -3 140 6 100 9 118 27 230
5 33 11 78 14 100 2 22 9 63 14 90 28 132 26 217 -6 229 -22 9 -43 -12 -43
-41 0 -14 -11 -66 -24 -116 -14 -51 -29 -125 -35 -166 -5 -40 -15 -79 -21 -85
-12 -12 -12 -14 32 208 16 81 27 153 26 158 -5 13 -67 -301 -73 -367 -2 -27
-2 -42 1 -32 3 9 10 17 16 17 5 0 8 -6 5 -14 -8 -20 -25 -157 -31 -249 -4 -57
-3 -76 6 -71 8 5 9 0 5 -16 -3 -14 2 -38 12 -59 45 -87 138 -117 200 -66 37
32 92 130 120 217 35 105 44 102 41 -12 -2 -80 26 -181 62 -224 33 -40 94 -76
129 -76 105 0 246 221 314 492 33 133 55 287 55 394 l0 53 43 11 c182 48 195
53 190 69 -3 11 -2 12 4 4 10 -14 56 -6 47 8 -3 5 1 7 8 4 16 -6 91 19 82 28
-3 3 2 4 13 1 10 -2 50 2 88 11 63 13 65 14 17 10 -29 -3 -60 -9 -69 -12 -11
-4 -14 -3 -9 5 27 44 296 51 347 10 15 -12 18 -18 7 -15 -9 3 -34 8 -55 11
-29 4 -25 2 16 -10 29 -8 63 -21 75 -29 18 -12 24 -12 43 3 20 15 21 22 13 56
-10 45 -52 93 -97 112 -49 21 -168 26 -239 10z m237 -23 c42 -16 89 -65 89
-90 0 -11 -9 -6 -27 15 -88 97 -268 96 -537 -4 -66 -24 -121 -42 -123 -40 -5
4 104 53 174 77 63 21 190 55 238 62 47 8 144 -3 186 -20z m-899 -70 c21 -19
41 -53 52 -90 7 -22 5 -23 -41 -23 -55 0 -108 27 -125 65 -9 19 -7 29 7 51 15
23 22 25 52 21 20 -4 44 -14 55 -24z m288 -57 c0 -3 -4 -8 -10 -11 -5 -3 -10
-1 -10 4 0 6 5 11 10 11 6 0 10 -2 10 -4z m-190 -231 c0 -41 -3 -75 -7 -75 -5
0 -7 34 -5 75 2 41 5 75 8 75 2 0 4 -34 4 -75z m-364 -296 c-14 -74 -28 -160
-32 -191 -3 -32 -11 -58 -16 -58 -5 0 -7 12 -4 28 3 15 10 70 16 122 10 89 34
220 48 265 6 18 7 17 10 -6 2 -15 -8 -87 -22 -160z m-36 -273 c0 -3 -4 -8 -10
-11 -5 -3 -10 -1 -10 4 0 6 5 11 10 11 6 0 10 -2 10 -4z"/>
<path d="M2333 2953 c9 -2 25 -2 35 0 9 3 1 5 -18 5 -19 0 -27 -2 -17 -5z"/>
<path d="M802 2350 c0 -19 2 -27 5 -17 2 9 2 25 0 35 -3 9 -5 1 -5 -18z"/>
<path d="M3342 2320 c0 -14 2 -19 5 -12 2 6 2 18 0 25 -3 6 -5 1 -5 -13z"/>
<path d="M3972 2280 c0 -14 2 -19 5 -12 2 6 2 18 0 25 -3 6 -5 1 -5 -13z"/>
<path d="M793 2220 c0 -41 2 -58 4 -37 2 20 2 54 0 75 -2 20 -4 3 -4 -38z"/>
<path d="M3561 2214 c0 -11 3 -14 6 -6 3 7 2 16 -1 19 -3 4 -6 -2 -5 -13z"/>
<path d="M3971 2174 c0 -11 3 -14 6 -6 3 7 2 16 -1 19 -3 4 -6 -2 -5 -13z"/>
<path d="M3553 2130 c0 -25 2 -35 4 -22 2 12 2 32 0 45 -2 12 -4 2 -4 -23z"/>
<path d="M3670 2033 c0 -6 8 -17 18 -24 16 -13 16 -13 2 6 -8 11 -16 22 -17
24 -2 2 -3 0 -3 -6z"/>
<path d="M3855 1944 c-9 -15 -12 -23 -6 -20 11 7 35 46 28 46 -3 0 -12 -12
-22 -26z"/>
<path d="M3780 1853 l-55 -58 58 55 c53 50 62 60 54 60 -1 0 -27 -26 -57 -57z"/>
<path d="M1774 1872 c3 -5 -7 -18 -22 -27 -15 -10 -42 -34 -61 -54 -31 -34
-32 -34 -16 -6 9 17 31 43 48 59 22 19 25 25 10 17 -27 -14 -67 -65 -83 -106
-34 -87 -3 -208 66 -254 44 -31 129 -60 172 -61 19 0 32 -5 32 -12 0 -9 4 -8
10 2 16 25 12 -22 -5 -61 -10 -24 -14 -28 -15 -14 0 21 -59 -135 -64 -171 -7
-53 -139 -219 -182 -230 -41 -10 -64 19 -64 82 0 61 22 180 44 243 30 82 12
131 -48 131 -29 0 -52 -18 -81 -62 -9 -15 -20 -26 -24 -24 -4 3 -24 -30 -45
-72 -51 -103 -141 -262 -165 -289 -11 -13 -24 -23 -29 -23 -6 0 -8 10 -6 23 2
12 2 16 -2 10 -32 -69 -28 133 5 247 11 36 30 98 44 138 14 40 23 82 19 95 -5
20 -4 21 14 8 18 -14 18 -14 2 3 -29 33 -61 13 -143 -87 -64 -79 -158 -167
-177 -167 -3 0 -9 17 -13 37 -10 52 -28 85 -70 122 -29 25 -44 31 -82 31 -81
0 -135 -49 -149 -137 -8 -52 14 -103 62 -139 34 -26 44 -29 112 -27 l74 1 -7
-36 c-17 -93 -91 -198 -133 -190 -22 4 -41 45 -43 88 -1 32 -2 33 -9 10 -6
-17 -9 3 -10 65 l-3 90 -8 -70 c-5 -38 -6 -88 -3 -110 5 -32 3 -38 -6 -28 -9
8 -13 44 -12 113 1 91 0 101 -16 98 -9 -2 -25 -19 -35 -38 -14 -29 -17 -30
-14 -10 3 14 8 34 11 45 4 11 0 7 -10 -9 -25 -43 -23 -168 3 -227 31 -67 64
-93 124 -95 60 -3 109 24 147 80 26 38 66 149 77 213 5 32 15 48 43 69 20 15
52 41 70 57 28 27 32 29 33 11 0 -11 5 -6 10 14 16 54 28 36 13 -20 -8 -29
-17 -84 -21 -123 l-8 -70 -6 60 c-5 49 -6 44 -4 -25 4 -124 46 -190 121 -190
46 0 81 34 133 126 24 44 56 98 72 122 16 23 29 48 29 55 0 7 7 22 15 33 15
18 16 16 11 -21 -17 -133 -17 -144 -2 -196 19 -63 19 -62 4 -53 -7 4 -1 -5 13
-20 14 -16 45 -32 69 -37 59 -13 113 14 187 96 88 95 196 307 218 428 7 33 10
37 39 37 17 0 63 3 102 6 47 4 74 2 78 -5 4 -6 -8 -37 -26 -68 -59 -102 -100
-212 -114 -304 -11 -70 -26 -83 -19 -15 6 51 19 110 39 181 4 11 -1 4 -10 -15
-31 -67 -47 -187 -40 -305 3 -60 8 -121 11 -135 6 -25 4 -26 -173 -75 -99 -27
-178 -53 -176 -57 6 -10 -112 -44 -216 -62 -123 -22 -326 -38 -384 -31 -106
14 -212 56 -240 97 -21 29 -33 15 -13 -16 41 -62 203 -116 346 -116 97 0 304
23 396 45 33 7 130 36 215 64 85 27 181 57 214 66 l58 17 44 -50 c55 -62 115
-92 189 -92 33 0 54 4 50 9 -3 6 4 15 15 21 28 15 53 67 48 101 -3 17 0 29 6
29 6 0 -5 16 -25 34 -38 36 -100 52 -161 42 -18 -3 -50 -8 -70 -11 l-37 -5 -6
44 c-12 78 8 214 50 343 30 90 112 257 118 241 4 -10 6 -10 6 0 2 29 -32 74
-67 89 -21 9 -79 18 -133 21 l-96 5 -5 102 c-4 85 -9 111 -30 151 -36 69 -65
87 -144 92 -44 3 -65 1 -60 -6z m109 -63 c38 -17 50 -55 55 -168 l4 -103 -23
7 c-24 7 -24 7 -4 -9 19 -15 17 -15 -20 -1 -74 30 -128 99 -128 165 0 45 27
98 56 110 30 12 32 12 60 -1z m-124 -74 c-15 -53 1 -100 52 -159 23 -26 39
-49 36 -52 -7 -7 -92 34 -110 54 -19 21 -38 90 -27 97 4 2 10 19 14 37 6 28
34 73 42 65 2 -2 -1 -21 -7 -42z m210 -142 c1 -23 -3 -45 -9 -48 -6 -4 -10 20
-9 67 1 78 16 62 18 -19z m-345 -340 c-22 -77 -28 -119 -29 -196 0 -80 -2 -94
-12 -80 -19 25 -16 125 8 222 11 47 24 91 28 96 5 6 11 23 15 39 4 15 10 26
13 23 3 -4 -7 -50 -23 -104z m-717 87 c5 0 40 -75 48 -99 5 -17 4 -22 -5 -16
-10 6 -12 1 -8 -18 3 -15 0 -31 -7 -37 -17 -14 -140 -6 -160 10 -38 32 -35
119 7 153 19 16 67 19 125 7z m974 -97 c-12 -20 -14 -14 -5 12 4 9 9 14 11 11
3 -2 0 -13 -6 -23z m-315 -344 c4 -8 1 -8 -14 0 -12 6 -24 16 -28 22 -4 8 -1
8 14 0 12 -6 24 -16 28 -22z m766 -166 c23 -20 23 -41 1 -65 -16 -18 -16 -19
3 -13 19 7 19 6 0 -9 -25 -20 -39 -20 -76 -1 -25 13 -60 63 -60 86 0 4 24 10
53 12 28 2 54 4 56 5 3 1 13 -5 23 -15z"/>
<path d="M1770 1585 c13 -14 26 -25 28 -25 3 0 -5 11 -18 25 -13 14 -26 25
-28 25 -3 0 5 -11 18 -25z"/>
<path d="M880 1336 c0 -2 8 -10 18 -17 15 -13 16 -12 3 4 -13 16 -21 21 -21
13z"/>
<path d="M437 1859 c-80 -12 -226 -47 -245 -60 -15 -9 -14 -9 3 -5 96 25 198
46 202 42 7 -7 1 -9 -112 -39 -116 -32 -136 -40 -159 -66 -15 -16 -17 -24 -8
-33 11 -11 11 -11 182 26 91 20 224 31 217 18 -4 -5 -28 -13 -54 -16 -93 -13
-224 -38 -220 -42 2 -3 44 2 92 11 48 8 105 15 126 15 l39 0 -21 -52 c-25 -62
-60 -188 -86 -308 -14 -64 -19 -78 -22 -55 -7 53 -30 -163 -30 -290 -1 -66 4
-149 9 -185 11 -69 40 -150 53 -150 23 0 77 31 77 45 0 9 -4 14 -9 11 -13 -8
-20 78 -15 179 11 245 16 317 28 400 22 143 80 415 88 415 14 0 8 -53 -17
-158 -58 -241 -67 -313 -70 -572 l-3 -245 8 235 c8 243 22 354 75 580 13 58
26 119 27 135 l3 30 140 0 c82 0 154 -5 173 -12 18 -7 30 -8 27 -3 -10 17
-108 30 -225 30 -73 0 -120 4 -120 10 0 17 224 15 282 -2 66 -19 90 11 44 57
-15 15 -46 28 -87 36 -47 9 -58 14 -43 20 26 10 -276 9 -349 -2z"/>
<path d="M2625 1818 c-36 -97 -65 -193 -65 -213 0 -40 36 -32 59 13 32 62 57
170 45 189 -14 22 -33 28 -39 11z"/>
<path d="M2906 1815 c-3 -8 -10 -15 -16 -15 -6 0 -8 5 -4 11 13 22 -30 -9 -61
-42 -16 -18 -21 -27 -11 -19 18 14 18 14 6 -7 -8 -12 -17 -20 -21 -17 -4 2
-13 -12 -19 -32 -15 -45 -7 -154 12 -169 13 -10 78 -111 78 -121 0 -3 -23 -38
-50 -79 -28 -41 -54 -85 -59 -97 -12 -32 -84 -122 -152 -190 -121 -122 -139
-48 -54 232 38 125 33 191 -14 189 -13 0 -14 -2 -1 -6 41 -16 39 -55 -10 -226
-22 -76 -40 -157 -40 -178 0 -24 -4 -38 -10 -34 -17 10 -12 49 30 216 45 180
47 197 25 206 -21 7 -40 -19 -60 -84 -9 -29 -21 -53 -25 -53 -5 0 -4 14 2 31
6 16 8 32 6 35 -3 2 -17 -35 -32 -84 -36 -113 -46 -253 -22 -300 36 -69 108
-80 185 -29 43 28 135 139 244 294 72 103 72 103 90 81 32 -38 88 -140 81
-147 -4 -3 -8 -1 -10 4 -8 20 -93 150 -94 142 0 -5 8 -21 19 -35 10 -15 30
-51 45 -79 l26 -53 -34 -47 c-18 -27 -42 -64 -51 -83 -17 -34 -17 -34 0 -20
17 14 18 14 6 -8 -7 -12 -16 -20 -21 -17 -14 9 -51 -105 -57 -177 -7 -87 14
-148 61 -178 42 -25 65 -25 121 1 56 26 98 76 127 149 19 47 22 74 22 185 -1
92 -6 145 -17 180 l-16 50 32 35 32 35 -31 -28 c-16 -15 -34 -27 -39 -27 -5 0
6 13 25 29 19 16 38 27 42 25 4 -3 32 13 62 35 30 22 71 50 91 61 32 18 37 18
31 5 -3 -9 -6 -19 -6 -21 0 -3 -4 -3 -9 1 -11 6 -49 -90 -62 -159 -20 -108 -7
-179 40 -202 44 -22 61 -7 107 95 24 53 52 110 61 128 62 110 251 343 262 324
5 -7 12 -2 20 15 6 15 14 24 18 20 3 -3 -8 -34 -25 -68 -44 -91 -83 -231 -89
-325 -5 -72 -3 -85 16 -117 13 -20 25 -36 27 -36 17 0 58 39 74 69 10 20 42
70 71 111 29 41 54 81 55 88 3 19 25 43 34 37 10 -6 42 30 33 38 -3 4 0 7 9 7
8 0 23 10 34 21 26 29 124 94 152 101 27 7 28 -5 3 -29 -51 -49 -180 -291
-181 -340 0 -7 -4 -13 -10 -13 -13 0 -14 -4 14 76 27 82 68 165 104 214 21 28
22 32 4 16 -11 -10 -39 -52 -60 -95 -99 -192 -127 -392 -71 -509 25 -51 81
-92 126 -92 41 0 119 26 153 52 35 26 96 106 104 138 4 14 -4 5 -18 -20 -26
-48 -116 -143 -116 -122 0 7 4 12 9 12 13 0 81 97 104 149 29 67 20 143 -22
183 -24 23 -38 28 -56 24 -14 -4 -24 -10 -23 -14 1 -4 -3 -17 -10 -29 -10 -19
-10 -27 4 -48 15 -23 15 -33 5 -79 -13 -60 -59 -139 -90 -155 -54 -29 -91 4
-92 84 0 39 -2 46 -10 30 -21 -45 3 86 31 169 38 114 75 191 144 301 47 73 56
96 53 125 l-3 35 -50 -1 c-27 -1 -68 -10 -89 -21 -22 -11 -46 -18 -53 -16 -19
7 -199 -181 -257 -267 -27 -41 -52 -77 -55 -80 -3 -3 -11 -16 -17 -30 l-12
-25 0 30 c-1 42 9 75 23 75 6 0 23 35 38 78 14 42 41 119 60 169 31 87 32 94
18 120 -16 29 -52 40 -95 29 -27 -7 -129 -85 -121 -93 3 -3 -17 -31 -45 -62
-28 -31 -72 -88 -99 -128 -26 -39 -50 -70 -52 -67 -3 2 -17 -18 -32 -46 -15
-27 -29 -50 -32 -50 -2 0 5 24 17 53 66 168 72 204 39 237 -11 11 -26 20 -32
19 -7 0 -3 -7 10 -16 34 -24 29 -78 -19 -202 -56 -146 -61 -154 -53 -106 3 22
21 81 39 130 48 131 49 141 23 159 -12 9 -31 16 -41 16 -10 0 -15 5 -12 10 7
11 -35 -5 -75 -29 -14 -8 -69 -48 -122 -88 -54 -40 -99 -73 -102 -73 -2 0 -16
19 -29 43 -14 24 -34 50 -43 58 -10 8 0 -12 20 -43 21 -31 36 -64 34 -73 -2
-11 -25 18 -61 76 l-59 94 28 55 c71 144 71 262 -1 318 -32 25 -70 29 -79 7z
m61 -75 c11 -22 13 -22 13 -5 0 17 2 17 10 5 18 -28 9 -107 -11 -94 -5 3 -9
-1 -9 -9 0 -8 -2 -30 -5 -48 l-6 -34 15 30 c8 17 15 23 15 15 1 -8 -13 -42
-29 -75 -17 -33 -28 -50 -26 -38 4 20 2 21 -16 12 -11 -6 -20 -9 -21 -7 -1 2
-13 19 -26 38 -17 24 -26 51 -28 90 -2 40 -1 49 6 35 9 -18 10 -17 10 8 2 52
43 110 75 105 11 -2 26 -14 33 -28z m929 -193 c-9 -43 -80 -227 -88 -227 -7 0
19 77 51 153 12 27 21 64 21 83 0 23 4 33 11 28 6 -4 8 -19 5 -37z m-166 10
c0 -2 -10 -12 -22 -23 l-23 -19 19 23 c18 21 26 27 26 19z m-1288 -289 c-7 -7
-12 -8 -12 -2 0 14 12 26 19 19 2 -3 -1 -11 -7 -17z m698 -158 c7 -33 10 -63
7 -66 -3 -3 -8 8 -12 25 -4 17 -11 31 -16 31 -6 0 -8 9 -4 19 3 11 1 22 -4 25
-6 4 -8 13 -5 21 10 25 21 8 34 -55z m195 -118 c-7 -7 -35 64 -35 85 1 10 10
-4 20 -31 11 -28 17 -52 15 -54z m-276 44 c14 -55 14 -176 1 -196 -7 -10 -10
13 -10 75 0 50 -4 107 -9 128 -13 53 4 46 18 -7z m-24 -42 c8 -72 2 -158 -15
-215 -10 -35 -51 -89 -67 -89 -26 1 -38 24 -44 82 l-6 63 -1 -61 c-2 -50 2
-64 18 -79 30 -27 70 -10 95 40 26 51 24 49 30 44 10 -11 -37 -87 -61 -98 -53
-24 -86 -5 -97 57 -8 42 12 140 24 121 7 -11 9 -9 9 6 0 36 82 195 100 195 5
0 12 -30 15 -66z m1284 44 c9 -25 -14 -108 -30 -108 -5 0 -9 -6 -9 -13 0 -7
-14 -28 -31 -47 l-31 -35 20 36 c24 45 46 134 38 156 -6 15 8 32 27 33 4 0 11
-10 16 -22z m-1160 -81 c-2 -99 -17 -118 -18 -24 -1 57 3 86 9 82 6 -3 9 -30
9 -58z m241 43 c0 -5 -5 -10 -11 -10 -5 0 -7 5 -4 10 3 6 8 10 11 10 2 0 4 -4
4 -10z"/>
<path d="M2861 1618 c-1 -20 27 -98 41 -113 5 -5 1 13 -10 40 -11 28 -22 59
-25 70 -4 16 -5 16 -6 3z"/>
<path d="M411 1534 c0 -11 3 -14 6 -6 3 7 2 16 -1 19 -3 4 -6 -2 -5 -13z"/>
<path d="M401 1494 c0 -11 3 -14 6 -6 3 7 2 16 -1 19 -3 4 -6 -2 -5 -13z"/>
<path d="M3755 1499 c-4 -6 -5 -12 -2 -15 2 -3 7 2 10 11 7 17 1 20 -8 4z"/>
<path d="M4311 1484 c0 -11 3 -14 6 -6 3 7 2 16 -1 19 -3 4 -6 -2 -5 -13z"/>
<path d="M4164 1458 l-19 -23 23 19 c12 11 22 21 22 23 0 8 -8 2 -26 -19z"/>
<path d="M391 1454 c0 -11 3 -14 6 -6 3 7 2 16 -1 19 -3 4 -6 -2 -5 -13z"/>
<path d="M3722 1417 c-67 -179 -79 -361 -25 -381 16 -6 16 -6 0 12 -39 43 -29
172 27 344 29 86 27 103 -2 25z"/>
<path d="M382 1410 c0 -14 2 -19 5 -12 2 6 2 18 0 25 -3 6 -5 1 -5 -13z"/>
<path d="M4227 1327 c-31 -51 -65 -114 -76 -139 -27 -63 -71 -205 -70 -226 0
-9 11 21 25 68 25 86 83 213 149 328 20 34 35 62 32 62 -3 0 -30 -42 -60 -93z"/>
<path d="M1911 1394 c0 -11 3 -14 6 -6 3 7 2 16 -1 19 -3 4 -6 -2 -5 -13z"/>
<path d="M1292 1266 c-24 -72 -45 -158 -47 -191 l-4 -60 9 56 c5 31 28 114 50
183 23 70 40 131 38 136 -2 4 -22 -51 -46 -124z"/>
<path d="M372 1355 c0 -16 2 -22 5 -12 2 9 2 23 0 30 -3 6 -5 -1 -5 -18z"/>
<path d="M2257 1302 c-75 -166 -108 -301 -106 -426 2 -68 2 -67 9 29 10 130
29 206 84 339 48 117 57 156 13 58z"/>
<path d="M3781 1194 c0 -11 3 -14 6 -6 3 7 2 16 -1 19 -3 4 -6 -2 -5 -13z"/>
<path d="M1132 1180 c0 -14 2 -19 5 -12 2 6 2 18 0 25 -3 6 -5 1 -5 -13z"/>
<path d="M4365 1110 c10 -11 20 -20 23 -20 3 0 -3 9 -13 20 -10 11 -20 20 -23
20 -3 0 3 -9 13 -20z"/>
<path d="M314 940 c0 -58 1 -81 3 -52 2 28 2 76 0 105 -2 28 -3 5 -3 -53z"/>
<path d="M1471 1024 c0 -11 3 -14 6 -6 3 7 2 16 -1 19 -3 4 -6 -2 -5 -13z"/>
<path d="M4402 1015 c0 -16 2 -22 5 -12 2 9 2 23 0 30 -3 6 -5 -1 -5 -18z"/>
<path d="M1481 990 c0 -8 4 -22 9 -30 12 -18 12 -2 0 25 -6 13 -9 15 -9 5z"/>
<path d="M4392 960 c0 -14 2 -19 5 -12 2 6 2 18 0 25 -3 6 -5 1 -5 -13z"/>
<path d="M3643 863 c9 -2 23 -2 30 0 6 3 -1 5 -18 5 -16 0 -22 -2 -12 -5z"/>
<path d="M3580 839 c-30 -5 -86 -11 -124 -13 -41 -3 -72 -10 -77 -18 -5 -7 -9
-9 -9 -4 0 5 -6 3 -14 -3 -8 -6 -18 -11 -22 -10 -5 1 -18 -1 -29 -6 -69 -27
-107 -46 -103 -50 3 -3 56 8 119 24 176 45 334 65 444 58 103 -7 126 5 45 22
-58 12 -149 12 -230 0z"/>
<path d="M321 815 c-1 -34 18 -92 40 -117 l20 -23 -17 28 c-9 16 -23 52 -30
80 -7 29 -13 43 -13 32z"/>
<path d="M3633 793 c9 -2 23 -2 30 0 6 3 -1 5 -18 5 -16 0 -22 -2 -12 -5z"/>
<path d="M3568 783 c6 -2 18 -2 25 0 6 3 1 5 -13 5 -14 0 -19 -2 -12 -5z"/>
<path d="M3508 773 c6 -2 18 -2 25 0 6 3 1 5 -13 5 -14 0 -19 -2 -12 -5z"/>
<path d="M3458 763 c7 -3 16 -2 19 1 4 3 -2 6 -13 5 -11 0 -14 -3 -6 -6z"/>
<path d="M3408 753 c7 -3 16 -2 19 1 4 3 -2 6 -13 5 -11 0 -14 -3 -6 -6z"/>
<path d="M2446 695 c8 -37 14 -45 14 -19 0 10 -5 26 -10 34 -8 11 -9 7 -4 -15z"/>
<path d="M566 639 c-33 -39 -41 -68 -41 -149 1 -169 160 -342 388 -421 175
-60 389 -65 637 -13 99 21 377 108 454 143 34 16 105 48 159 71 53 24 97 46
97 50 0 4 48 30 108 57 103 49 131 62 252 115 53 24 89 53 78 64 -3 3 -34 -6
-68 -20 -34 -14 -66 -23 -71 -20 -5 3 -9 1 -9 -4 0 -5 -6 -9 -12 -9 -7 0 -137
-59 -288 -131 -480 -228 -714 -295 -1030 -296 -128 -1 -196 4 -230 17 -8 4
-33 12 -56 20 -130 43 -274 160 -324 260 -20 41 -28 52 -25 32 l6 -30 -18 30
c-26 43 -25 169 1 210 11 17 26 36 35 43 13 11 13 12 -1 12 -9 0 -28 -14 -42
-31z"/>
<path d="M1668 643 c7 -3 16 -2 19 1 4 3 -2 6 -13 5 -11 0 -14 -3 -6 -6z"/>
<path d="M2435 630 c-4 -11 -18 -27 -33 -35 -15 -8 -21 -14 -14 -15 15 0 62
44 62 60 0 17 -8 11 -15 -10z"/>
<path d="M1628 633 c7 -3 16 -2 19 1 4 3 -2 6 -13 5 -11 0 -14 -3 -6 -6z"/>
<path d="M1578 623 c6 -2 18 -2 25 0 6 3 1 5 -13 5 -14 0 -19 -2 -12 -5z"/>
<path d="M3588 623 c7 -3 16 -2 19 1 4 3 -2 6 -13 5 -11 0 -14 -3 -6 -6z"/>
<path d="M1538 613 c7 -3 16 -2 19 1 4 3 -2 6 -13 5 -11 0 -14 -3 -6 -6z"/>
<path d="M3528 613 c6 -2 18 -2 25 0 6 3 1 5 -13 5 -14 0 -19 -2 -12 -5z"/>
<path d="M3675 608 c-43 -5 -136 -20 -205 -34 -69 -15 -144 -30 -167 -35 -36
-7 -91 -20 -188 -45 -16 -4 -17 -3 -5 5 11 8 11 11 2 11 -7 0 -15 -7 -18 -15
-4 -8 -10 -15 -16 -15 -5 0 -7 4 -4 9 3 5 -12 4 -34 -1 -22 -6 -38 -13 -36
-17 2 -3 -8 -6 -22 -7 -27 -1 -73 -19 -382 -147 -162 -67 -347 -154 -355 -167
-3 -4 57 17 133 47 184 74 552 204 683 242 266 77 653 151 794 151 90 0 129
11 82 24 -31 8 -166 5 -262 -6z"/>
<path d="M1483 603 c9 -2 23 -2 30 0 6 3 -1 5 -18 5 -16 0 -22 -2 -12 -5z"/>
<path d="M3478 603 c6 -2 18 -2 25 0 6 3 1 5 -13 5 -14 0 -19 -2 -12 -5z"/>
<path d="M1058 593 c7 -3 16 -2 19 1 4 3 -2 6 -13 5 -11 0 -14 -3 -6 -6z"/>
<path d="M1413 593 c9 -2 25 -2 35 0 9 3 1 5 -18 5 -19 0 -27 -2 -17 -5z"/>
<path d="M3438 593 c7 -3 16 -2 19 1 4 3 -2 6 -13 5 -11 0 -14 -3 -6 -6z"/>
<path d="M1118 583 c12 -2 32 -2 45 0 12 2 2 4 -23 4 -25 0 -35 -2 -22 -4z"/>
<path d="M1303 583 c15 -2 39 -2 55 0 15 2 2 4 -28 4 -30 0 -43 -2 -27 -4z"/>
<path d="M1800 558 c-11 -18 -25 -49 -31 -69 -6 -19 -20 -46 -30 -60 -24 -31
-34 -17 -44 58 -6 48 -9 53 -31 53 -30 0 -64 -17 -64 -31 0 -6 5 -7 10 -4 6 4
10 -8 10 -30 0 -22 -4 -34 -10 -30 -10 6 0 -28 21 -66 15 -30 57 -42 91 -28
25 10 88 95 88 119 0 6 5 10 10 10 6 0 10 -6 10 -14 0 -8 -4 -18 -10 -21 -5
-3 -10 -17 -10 -31 0 -47 -27 -92 -68 -113 -21 -11 -48 -18 -59 -15 -13 4 -22
0 -26 -10 -4 -9 -2 -16 3 -16 6 0 10 -5 10 -11 0 -5 -5 -7 -12 -3 -6 4 -8 3
-4 -4 11 -18 62 -24 105 -12 91 24 145 113 144 239 0 57 -4 77 -16 86 -19 14
-23 30 -5 19 7 -4 8 -3 4 4 -4 7 -20 12 -37 12 -22 0 -34 -8 -49 -32z m-91
-163 c0 -5 -6 -1 -14 9 -8 11 -15 27 -15 35 1 17 29 -26 29 -44z"/>
<path d="M3388 583 c7 -3 16 -2 19 1 4 3 -2 6 -13 5 -11 0 -14 -3 -6 -6z"/>
<path d="M3348 573 c7 -3 16 -2 19 1 4 3 -2 6 -13 5 -11 0 -14 -3 -6 -6z"/>
<path d="M3308 563 c7 -3 16 -2 19 1 4 3 -2 6 -13 5 -11 0 -14 -3 -6 -6z"/>
<path d="M3268 553 c7 -3 16 -2 19 1 4 3 -2 6 -13 5 -11 0 -14 -3 -6 -6z"/>
<path d="M1445 495 c-22 -8 -50 -27 -63 -42 -30 -38 -61 -141 -69 -230 l-6
-73 37 0 c29 0 36 4 36 20 0 13 -5 18 -15 14 -16 -7 -19 6 -9 44 7 26 21 29
27 5 4 -16 5 -16 6 -1 1 21 79 37 91 18 6 -9 9 -9 14 1 3 8 4 -5 1 -29 -4 -32
-2 -44 9 -48 21 -8 86 15 93 33 14 36 -44 293 -67 293 -4 0 1 -18 12 -40 11
-22 18 -44 16 -50 -2 -6 -14 14 -28 44 -13 31 -29 56 -35 56 -5 -1 -28 -7 -50
-15z m25 -120 l0 -65 -32 -1 c-18 -1 -39 -1 -45 0 -7 1 -13 -4 -13 -10 0 -7
-3 -10 -6 -7 -3 3 -2 22 2 43 4 25 11 35 20 31 8 -3 14 1 14 8 0 16 38 66 51
66 5 0 9 -29 9 -65z m17 -27 c-2 -13 -4 -5 -4 17 -1 22 1 32 4 23 2 -10 2 -28
0 -40z m80 20 c-3 -8 -6 -5 -6 6 -1 11 2 17 5 13 3 -3 4 -12 1 -19z m-47 -30
c0 -5 -4 -8 -10 -8 -5 0 -10 10 -10 23 0 18 2 19 10 7 5 -8 10 -18 10 -22z
m11 -108 c15 0 7 -43 -8 -48 -9 -2 -13 9 -12 40 1 24 3 35 6 26 2 -10 9 -18
14 -18z"/>
<path d="M1391 334 c0 -11 3 -14 6 -6 3 7 2 16 -1 19 -3 4 -6 -2 -5 -13z"/>
<path d="M572 460 c0 -14 2 -19 5 -12 2 6 2 18 0 25 -3 6 -5 1 -5 -13z"/>
<path d="M1002 448 c-13 -28 -22 -197 -10 -204 14 -9 9 -34 -6 -34 -8 0 -17
12 -19 28 -4 26 -4 26 -6 -4 -4 -84 165 -127 229 -59 13 14 26 22 30 20 4 -3
13 2 20 10 10 12 10 15 -1 15 -8 0 -4 9 9 23 16 17 22 36 22 71 0 29 -4 45
-10 41 -5 -3 -10 -2 -10 4 0 5 -3 17 -7 27 -5 13 -3 15 8 9 11 -7 11 -4 -2 15
-27 42 -76 60 -160 60 -68 0 -77 -2 -87 -22z m108 -20 c40 5 63 -29 68 -97 6
-82 -28 -141 -82 -141 -13 0 -15 16 -12 108 2 59 1 77 -1 40 -2 -38 -8 -68
-13 -68 -8 0 -19 158 -11 166 2 2 9 0 15 -3 6 -4 22 -6 36 -5z m-97 -23 c-7
-21 -13 -19 -13 6 0 11 4 18 10 14 5 -3 7 -12 3 -20z m199 -69 c2 -52 -2 -77
-19 -103 -23 -35 -27 -21 -8 33 9 26 13 60 10 74 -3 14 -8 34 -11 45 -5 20 -5
20 10 1 9 -11 17 -34 18 -50z m-142 -116 c0 -16 -4 -30 -8 -30 -5 0 -7 14 -4
30 2 17 6 30 8 30 2 0 4 -13 4 -30z"/>
<path d="M3760 419 c-168 -9 -262 -23 -422 -63 -136 -35 -421 -126 -414 -133
2 -2 55 10 117 28 63 17 150 40 194 50 44 11 88 22 99 25 12 4 16 2 12 -5 -12
-18 16 -12 31 7 8 9 11 11 7 3 -5 -11 -1 -13 17 -8 152 38 438 69 617 67 67
-1 112 3 112 9 0 20 -185 30 -370 20z"/>
<path d="M3278 293 c7 -3 16 -2 19 1 4 3 -2 6 -13 5 -11 0 -14 -3 -6 -6z"/>
<path d="M3208 273 c7 -3 16 -2 19 1 4 3 -2 6 -13 5 -11 0 -14 -3 -6 -6z"/>
</g>
</svg>
